<svg xmlns:dc="http://purl.org/dc/elements/1.1/" xmlns:cc="http://creativecommons.org/ns#" xmlns:rdf="http://www.w3.org/1999/02/22-rdf-syntax-ns#" xmlns:svg="http://www.w3.org/2000/svg" xmlns="http://www.w3.org/2000/svg" viewBox="50 50 380 285" height="285" width="380" xml:space="preserve" id="svg2" version="1.1"><metadata id="metadata8"><rdf:RDF><cc:Work rdf:about=""><dc:format>image/svg+xml</dc:format><dc:type rdf:resource="http://purl.org/dc/dcmitype/StillImage"/></cc:Work></rdf:RDF></metadata><defs id="defs6"/><g transform="matrix(1.3333333,0,0,-1.3333333,0,384.32)" id="g10"><g transform="scale(0.1)" id="g12"><path id="path14" style="fill:#ed1e24;fill-opacity:1;fill-rule:nonzero;stroke:none" d="M 661.238,743.43 H 576.184 L 537.438,565.551 h -88.661 l 69.192,325.789 c 4.32,19.211 9.254,34.601 14.781,46.121 5.516,11.527 12.973,20.418 22.34,26.66 9.367,6.27 20.785,10.469 34.242,12.629 13.449,2.148 30.27,3.238 50.453,3.238 h 70.637 l -15.859,-74.949 -61.481,-1.598 c -34.519,0 -37.684,-68.73 -41.047,-85.043 H 677.09 L 661.238,743.43"/><path id="path16" style="fill:#ed1e24;fill-opacity:1;fill-rule:nonzero;stroke:none" d="m 759.426,565.551 h -88.66 l 87.933,414.437 h 88.656 L 759.426,565.551"/><path id="path18" style="fill:#ed1e24;fill-opacity:1;fill-rule:nonzero;stroke:none" d="m 1094.58,683.75 15.86,74.961 c 2.4,12.019 3.6,19.937 3.6,23.789 0,8.16 -2.77,13.441 -8.28,15.859 -5.54,2.391 -16.7,3.59 -33.52,3.59 h -70.64 c -10.096,0 -18.381,-0.359 -24.866,-1.07 -6.492,-0.731 -11.777,-2.52 -15.855,-5.399 -4.094,-2.89 -7.332,-7.21 -9.734,-12.98 -2.407,-5.762 -4.563,-13.68 -6.493,-23.789 L 928.801,683.75 c -2.399,-12.012 -3.606,-19.941 -3.606,-23.789 0,-8.172 2.758,-13.461 8.289,-15.852 5.524,-2.41 16.704,-3.597 33.524,-3.597 h 70.632 c 11.05,0 19.82,0.468 26.31,1.429 6.48,0.969 11.65,3.008 15.49,6.118 3.84,3.14 6.85,7.461 9.01,13 2.16,5.519 4.2,13.089 6.13,22.691 z m 81.45,-30.281 c -3.85,-18.731 -8.53,-33.758 -14.06,-45.028 -5.52,-11.312 -12.73,-20.191 -21.62,-26.671 -8.89,-6.508 -20.31,-10.829 -34.24,-12.989 -13.94,-2.152 -31.24,-3.23 -51.89,-3.23 H 917.27 c -33.153,0 -56.219,3.23 -69.2,9.711 -12.972,6.508 -19.457,19.59 -19.457,39.289 0,11.058 1.68,24.027 5.047,38.918 l 28.828,135.519 c 4.325,18.742 9.25,33.871 14.778,45.403 5.523,11.531 12.73,20.418 21.621,26.668 8.89,6.242 20.179,10.461 33.879,12.621 13.687,2.16 30.636,3.25 50.812,3.25 h 136.952 c 17.78,0 32.43,-0.86 43.96,-2.551 11.53,-1.668 20.67,-4.309 27.39,-7.918 6.72,-3.602 11.41,-8.652 14.05,-15.133 2.65,-6.488 3.98,-14.289 3.98,-23.43 0,-11.046 -1.69,-24.039 -5.06,-38.91 l -28.82,-135.519"/><path id="path20" style="fill:#ed1e24;fill-opacity:1;fill-rule:nonzero;stroke:none" d="m 1868.69,877.641 -178.76,-312.09 h -128.29 l -16.59,181.629 -104.5,-181.629 h -117.49 l -46.85,312.09 h 90.81 l 31,-248.68 145.59,248.68 h 66.31 l 26.68,-248.68 141.27,248.68 h 90.82"/><path id="path22" style="fill:#ed1e24;fill-opacity:1;fill-rule:nonzero;stroke:none" d="m 2198.8,654.199 c -3.86,-18.738 -8.65,-33.879 -14.42,-45.398 -5.77,-11.551 -13.22,-20.442 -22.35,-26.672 -9.13,-6.258 -20.55,-10.449 -34.25,-12.629 -13.68,-2.16 -30.61,-3.238 -50.79,-3.238 h -108.12 l 15.85,74.25 h 74.24 c 11.53,0 20.66,0.59 27.4,1.789 6.72,1.211 11.89,3.371 15.49,6.488 3.61,3.121 6.35,7.449 8.28,12.981 1.92,5.519 3.84,12.851 5.78,21.98 l 16.57,75.691 c 1.91,9.61 2.88,17.297 2.88,23.059 0,8.16 -2.77,13.559 -8.28,16.219 -5.53,2.64 -16.72,3.961 -33.52,3.961 h -105.95 l -72.08,-340.2 h -88.65 l 87.92,415.161 h 228.49 c 33.17,0 56.22,-3.371 69.19,-10.102 12.98,-6.711 19.46,-19.687 19.46,-38.918 0,-11.051 -1.69,-24.25 -5.04,-39.633 l -28.1,-134.789"/><path id="path24" style="fill:#ed1e24;fill-opacity:1;fill-rule:nonzero;stroke:none" d="m 2324.92,565.551 h -88.65 l 87.94,414.437 h 88.66 l -87.95,-414.437"/><path id="path26" style="fill:#ed1e24;fill-opacity:1;fill-rule:nonzero;stroke:none" d="m 2709.1,565.551 h -229.22 c -16.82,0 -30.88,0.711 -42.16,2.16 -11.28,1.449 -20.43,3.969 -27.39,7.551 -6.97,3.617 -12.02,8.539 -15.12,14.789 -3.14,6.25 -4.69,14.418 -4.69,24.5 0,11.058 1.68,24.027 5.05,38.918 l 3.6,17.312 c 4.32,18.739 9.12,33.867 14.41,45.41 5.29,11.52 12.49,20.411 21.62,26.668 9.15,6.243 20.54,10.45 34.23,12.602 13.7,2.148 30.87,3.25 51.55,3.25 h 103.06 l -15.86,-74.961 h -95.85 c -8.65,0 -15.63,-2.762 -20.9,-8.281 -5.3,-5.528 -7.92,-11.66 -7.92,-18.391 0,-11.047 6.47,-16.566 19.46,-16.566 h 133.33 l 25.21,118.199 c 2.42,12.019 3.63,19.937 3.63,23.789 0,8.16 -2.79,13.441 -8.29,15.859 -5.53,2.391 -16.71,3.59 -33.53,3.59 h -181.63 l 15.86,74.981 h 214.8 c 16.8,0 30.85,-0.731 42.14,-2.168 11.3,-1.453 20.44,-3.961 27.39,-7.582 6.99,-3.61 12.02,-8.532 15.15,-14.77 3.12,-6.25 4.68,-14.41 4.68,-24.512 0,-11.046 -1.67,-24.039 -5.04,-38.91 L 2709.1,565.551"/><path id="path28" style="fill:#ed1e24;fill-opacity:1;fill-rule:nonzero;stroke:none" d="m 3081.72,497.078 c -3.85,-18.738 -8.52,-33.758 -14.04,-45.066 -5.53,-11.282 -12.74,-20.172 -21.64,-26.66 -8.88,-6.481 -20.3,-10.813 -34.23,-12.973 -13.93,-2.16 -31.22,-3.238 -51.89,-3.238 h -214.78 l 15.85,74.25 h 181.64 c 10.56,0 19.22,0.468 25.93,1.429 6.73,0.95 12.03,3.141 15.85,6.5 3.85,3.352 6.86,7.809 9.02,13.321 2.17,5.519 4.21,13.078 6.14,22.699 l 7.93,38.922 h -139.84 c -33.16,0 -56.22,3.238 -69.18,9.726 -12.99,6.5 -19.48,19.352 -19.48,38.563 0,11.058 1.68,24.281 5.05,39.648 l 47.57,223.442 h 87.93 L 2878.47,683.75 c -1.92,-9.602 -2.88,-17.309 -2.88,-23.059 0,-8.171 2.76,-13.57 8.28,-16.222 5.52,-2.641 16.72,-3.957 33.53,-3.957 h 105.95 l 50.45,237.129 h 88.65 l -80.73,-380.563"/><path id="path30" style="fill:#ffffff;fill-opacity:1;fill-rule:nonzero;stroke:none" d="M 633.477,2437.84 H 2971.87 c 99.35,0 179.87,-65.08 179.87,-145.35 V 1217.68 c 0,-80.27 -80.52,-145.34 -179.87,-145.34 H 633.477 c -99.34,0 -179.879,65.07 -179.879,145.34 v 1074.81 c 0,80.27 80.539,145.35 179.879,145.35"/><path id="path32" style="fill:#ed1e24;fill-opacity:1;fill-rule:nonzero;stroke:none" d="m 1594.28,1072.33 c 0,0 217.9,178.82 693.18,539.78 132.08,100.3 269.56,143.22 364.13,157.28 170.31,25.31 263.23,0 272.01,-78.65 19.14,-171.58 -122.97,-171.58 -250.07,-171.58 -61.41,0 -235.14,4.27 -302.72,-21.44 -94.83,-36.1 -125.89,-116.39 -105.28,-153.71 29.98,-54.31 197.23,-42.32 394.84,-42.1 140.45,0.17 317.59,9.34 408.02,78.63 69.06,52.94 87.74,113.6 87.74,113.6 l -4.39,350.31 c 0,0 -59.81,103.66 -150.15,135.05 -108.26,37.63 -392.46,61.15 -635.16,-52.83 -260.77,-122.45 -515.2,-326.84 -649.31,-436.11 -437.75,-356.61 -631.76,-414.64 -631.76,-414.64 l 508.92,-3.59"/><path id="path34" style="fill:#ed1e24;fill-opacity:1;fill-rule:nonzero;stroke:none" d="m 456.527,1730.05 c 0,0 166.711,-128.69 684.403,282.4 435.45,345.76 631.77,421.82 631.77,421.82 l 666.84,3.57 c 0,0 -298.32,-14.32 -579.11,-189.47 -137.28,-85.64 -355.36,-221.63 -355.36,-221.63 0,0 219.59,6.97 241.3,-10.72 26.33,-21.45 -17.13,-60.77 -17.13,-60.77 0,0 -88.78,-120.61 -194.92,-120.33 -255.05,0.65 -263.24,0 -263.24,0 0,0 -233.16,-191.08 -446.029,-294.33 -184.266,-89.36 -364.137,-46.45 -364.137,-46.45 l -4.387,235.91"/><path id="path36" style="fill:#ed1e24;fill-opacity:1;fill-rule:nonzero;stroke:none" d="m 1594.28,1072.33 c 0,0 217.9,178.82 693.18,539.78 132.08,100.3 269.56,143.22 364.13,157.28 170.31,25.31 263.23,0 272.01,-78.65 19.14,-171.58 -122.97,-171.58 -250.07,-171.58 -61.41,0 -236.9,7.15 -302.72,-21.44 -65.8,-28.6 -116,-113.73 -105.28,-153.71 13.43,-50.18 197.23,-32.39 394.84,-32.17 140.45,0.17 329.27,20.58 408.02,78.65 70.3,51.83 87.74,103.65 87.74,103.65 l -4.39,350.31 c 0,0 -71.99,93.73 -162.34,125.12 -108.26,37.63 -380.27,71.08 -622.97,-42.9 -260.77,-122.45 -515.2,-326.84 -649.31,-436.11 -437.75,-356.61 -631.76,-414.64 -631.76,-414.64 l 508.92,-3.59"/><path id="path38" style="fill:#ed1e24;fill-opacity:1;fill-rule:nonzero;stroke:none" d="m 457.984,1226.03 c 0,0 307.11,-132.24 881.836,314.57 574.72,446.85 938.87,664.88 1316.17,679.18 377.3,14.3 500.14,-75.08 500.14,-75.08 0,0 8.77,221.64 -57.04,253.82 -65.8,32.17 -43.87,42.89 -285.16,35.75 -241.31,-7.15 -2044.453,3.57 -2044.453,3.57 0,0 -201.809,17.87 -267.622,-46.48 -65.804,-64.34 -43.871,-225.2 -43.871,-225.2 v -940.13"/><path id="path40" style="fill:#ffffff;fill-opacity:1;fill-rule:nonzero;stroke:none" d="m 456.527,1730.05 c 0,0 166.711,-128.69 684.403,282.4 435.45,345.76 631.77,421.82 631.77,421.82 l 666.84,3.57 c 0,0 -298.32,-14.32 -579.11,-189.47 -137.28,-85.64 -343.17,-211.69 -343.17,-211.69 0,0 0,0 228.69,-1.44 37.21,-0.23 -4.52,-79.99 -4.52,-79.99 0,0 -72.89,-120.33 -207.11,-120.33 -263.24,0 -263.24,0 -263.24,0 0,0 -233.16,-191.08 -446.029,-294.33 -184.266,-89.36 -364.137,-46.45 -364.137,-46.45 l -4.387,235.91"/><path id="path42" style="fill:none;stroke:#ed1e24;stroke-width:30;stroke-linecap:butt;stroke-linejoin:miter;stroke-miterlimit:4;stroke-dasharray:none;stroke-opacity:1" d="M 633.477,2437.84 H 2971.87 c 99.35,0 179.87,-65.08 179.87,-145.35 V 1217.68 c 0,-80.27 -80.52,-145.34 -179.87,-145.34 H 633.477 c -99.34,0 -179.879,65.07 -179.879,145.34 v 1074.81 c 0,80.27 80.539,145.35 179.879,145.35 z"/><path id="path44" style="fill:none;stroke:#ed1e24;stroke-width:10;stroke-linecap:butt;stroke-linejoin:miter;stroke-miterlimit:4;stroke-dasharray:none;stroke-opacity:1" d="m 457.984,1226.03 c 0,0 307.11,-132.24 881.836,314.57 574.72,446.85 938.87,664.88 1316.17,679.18 377.3,14.3 500.14,-75.08 500.14,-75.08 0,0 8.77,221.64 -57.04,253.82 -65.8,32.17 -43.87,42.89 -285.16,35.75 -241.31,-7.15 -2044.453,3.57 -2044.453,3.57 0,0 -201.809,17.87 -267.622,-46.48 -65.804,-64.34 -43.871,-225.2 -43.871,-225.2 z"/><path id="path46" style="fill:none;stroke:#000000;stroke-width:5;stroke-linecap:butt;stroke-linejoin:miter;stroke-miterlimit:4;stroke-dasharray:none;stroke-opacity:1" d="M 270,360 H 0"/><path id="path48" style="fill:none;stroke:#000000;stroke-width:5;stroke-linecap:butt;stroke-linejoin:miter;stroke-miterlimit:4;stroke-dasharray:none;stroke-opacity:1" d="M 360,270 V 0"/><path id="path50" style="fill:none;stroke:#000000;stroke-width:5;stroke-linecap:butt;stroke-linejoin:miter;stroke-miterlimit:4;stroke-dasharray:none;stroke-opacity:1" d="M 270,2522.4 H 0"/><path id="path52" style="fill:none;stroke:#000000;stroke-width:5;stroke-linecap:butt;stroke-linejoin:miter;stroke-miterlimit:4;stroke-dasharray:none;stroke-opacity:1" d="m 360,2612.4 v 270"/><path id="path54" style="fill:none;stroke:#000000;stroke-width:5;stroke-linecap:butt;stroke-linejoin:miter;stroke-miterlimit:4;stroke-dasharray:none;stroke-opacity:1" d="m 3330,2522.4 h 270"/><path id="path56" style="fill:none;stroke:#000000;stroke-width:5;stroke-linecap:butt;stroke-linejoin:miter;stroke-miterlimit:4;stroke-dasharray:none;stroke-opacity:1" d="m 3240,2612.4 v 270"/><path id="path58" style="fill:none;stroke:#000000;stroke-width:5;stroke-linecap:butt;stroke-linejoin:miter;stroke-miterlimit:4;stroke-dasharray:none;stroke-opacity:1" d="m 3330,360 h 270"/><path id="path60" style="fill:none;stroke:#000000;stroke-width:5;stroke-linecap:butt;stroke-linejoin:miter;stroke-miterlimit:4;stroke-dasharray:none;stroke-opacity:1" d="M 3240,270 V 0"/></g></g></svg>